<!-- Generator: Adobe Illustrator 21.0.2, SVG Export Plug-In  -->
<svg version="1.1"
	 xmlns="http://www.w3.org/2000/svg" xmlns:xlink="http://www.w3.org/1999/xlink" xmlns:a="http://ns.adobe.com/AdobeSVGViewerExtensions/3.0/"
	 x="0px" y="0px" width="845.1px" height="307.9px" viewBox="0 0 845.1 307.9" style="enable-background:new 0 0 845.1 307.9;"
	 xml:space="preserve">
<defs>
</defs>
<g>
	<path d="M62.7,20c0-5.8-1.9-6.8-10.7-7.5V8.7h25v3.8c-7.5,0.9-8.6,1.7-8.6,7.5v64.3h-5.3l-47-59.4v47.9c0,5.8,1.8,6.8,10.6,7.5v3.8
		h-25v-3.8c7.6-0.9,8.6-1.7,8.6-7.5V19.1c-3.2-4.6-4.7-6.4-8.7-6.7V8.7h22l39.1,49.7V20z"/>
	<path d="M80.2,56.9c0-18.2,11.9-30.8,27.9-30.8c16.4,0,27.6,11.4,27.6,28.3c0,18.2-11.9,30.7-27.9,30.7
		C91.3,85.1,80.2,74,80.2,56.9z M119.8,58.1c0-15.9-3.6-28-12.2-28c-7.9,0-11.6,9-11.6,23.1c0,15.9,3.8,28.1,12.3,28.1
		C116.3,81.3,119.8,72.1,119.8,58.1z"/>
	<path d="M161.9,74.9c0,4.4,2.5,5,9.1,5.6v3.5h-30.7v-3.5c5-0.3,6.8-1,6.8-4.7v-38l-6.4-3.8v-2l19.2-5.9h2.5L161.9,42
		c5.2-11.7,8.4-15.9,14.7-15.9c2.3,0,3.9,0.8,4.7,1.8v11.6h-2c-6.7,0-11.9,0.3-17.4,5.8V74.9z"/>
	<path d="M204.9,27.2h14v4.9h-14v35.5c0,6.5,2.5,9.3,7.5,9.3c3,0,5.4-1,8.1-3l1.3,1.9c-3.4,5.4-8.8,9.2-16.5,9.2
		c-8.8,0-15.2-4.6-15.2-16.6V32.1h-6.7v-2.5c7.4-3.3,13.7-9.3,18.4-16.4h3.2V27.2z"/>
	<path d="M230.4,10.7l-6.4-3.3V5.2l19-5.2h2.4v36.6c4.5-5.4,10.7-10.5,19.8-10.5c10.1,0,15.5,5.9,15.5,17.6v32.1
		c0,3.8,1.7,4.4,6.7,4.7v3.5H259v-3.5c4.9-0.3,6.5-1,6.5-4.7V44.4c0-6.2-2.5-9.3-8.4-9.3c-4.4,0-8.5,2-11.9,4.4v36.3
		c0,3.8,1.6,4.4,6.5,4.7v3.5h-28.1v-3.5c4.9-0.3,6.7-1,6.7-4.7V10.7z"/>
	<path d="M363.4,37.2c0.3-1.1,0.5-2.1,0.5-2.9c0-2.6-2.3-3.1-6.7-3.6v-3.5h17.9v3.5c-3.8,1.1-4.5,1.8-5.5,4.1l-20.3,50h-4.6
		l-12.9-34.7l-14.3,34.7h-4.5l-21.3-50c-1-2.3-1.6-3-5.5-4.1v-3.5h28v3.5c-4.1,0.5-6.1,1.2-6.1,3.5c0,0.9,0.1,1.8,0.6,3l11.4,29.5
		l9.2-23l-3.3-9c-0.9-2.3-1.8-3.1-5.3-4.1v-3.5h27.3v3.5c-4.5,0.6-6.9,1-6.9,3.8c0,0.8,0.1,1.6,0.4,2.8L352.1,66L363.4,37.2z"/>
	<path d="M423.6,48.5V51h-35c-0.4,15,7.3,23.9,17.8,23.9c7.3,0,12.1-3.1,16-8.7l1.7,1c-2.8,10.6-10.6,17.9-23,17.9
		c-15.6,0-26-11.5-26-28c0-18.4,11.8-31,26.5-31C416.1,26.1,423.6,35.6,423.6,48.5z M388.8,47h21.5c0-10.1-2.7-17-9.7-17
		C393.5,30.1,389.6,37.1,388.8,47z"/>
	<path d="M430.9,79.8l-0.6-14.7h4c2.4,9.3,7.8,16.3,16.1,16.3c5.8,0,10.2-2.8,10.2-8.7c0-5.8-4-8.1-12.5-11.1
		c-11.5-4-17.4-8.5-17.4-18.5c0-10.7,8.2-17.1,20-17.1c7,0,13,1.8,17.5,4.7v13h-3.7c-1.7-7.7-6.2-14-13.8-14c-5.5,0-8.7,3.2-8.7,7.8
		c0,4.9,3.3,7.3,11.6,10.3c11.7,4.1,18.5,8.5,18.5,19c0,11.5-8.6,18.1-21.8,18.1C442,85.1,435.3,83,430.9,79.8z"/>
	<path d="M497.2,27.2h14v4.9h-14v35.5c0,6.5,2.5,9.3,7.5,9.3c3,0,5.4-1,8.1-3l1.3,1.9c-3.4,5.4-8.8,9.2-16.5,9.2
		c-8.8,0-15.2-4.6-15.2-16.6V32.1h-6.7v-2.5c7.4-3.3,13.7-9.3,18.4-16.4h3.2V27.2z"/>
	<path d="M564.4,48.5V51h-35c-0.4,15,7.3,23.9,17.8,23.9c7.3,0,12.1-3.1,16-8.7l1.7,1c-2.8,10.6-10.6,17.9-23,17.9
		c-15.6,0-26-11.5-26-28c0-18.4,11.8-31,26.5-31C556.9,26.1,564.4,35.6,564.4,48.5z M529.6,47h21.5c0-10.1-2.7-17-9.7-17
		C534.3,30.1,530.5,37.1,529.6,47z"/>
	<path d="M590.5,74.9c0,4.4,2.5,5,9.1,5.6v3.5h-30.7v-3.5c5-0.3,6.8-1,6.8-4.7v-38l-6.4-3.8v-2l19.2-5.9h2.5L590.5,42
		c5.2-11.7,8.4-15.9,14.7-15.9c2.3,0,3.9,0.8,4.7,1.8v11.6h-2c-6.7,0-11.9,0.3-17.4,5.8V74.9z"/>
	<path d="M654.9,44.4c0-6.2-2.4-9.3-8.3-9.3c-4.5,0-8.6,2-12,4.4v36.3c0,3.8,1.6,4.4,6.5,4.7v3.5H613v-3.5c5-0.3,6.8-1,6.8-4.7v-38
		l-6.4-3.8v-2l19.2-5.9h2.5l-0.4,10.5c4.6-5.4,10.7-10.5,19.9-10.5c10.1,0,15.4,5.8,15.4,17.5v32.2c0,3.8,1.7,4.4,6.7,4.7v3.5h-28.1
		v-3.5c4.9-0.3,6.5-1,6.5-4.7V44.4z"/>
	<path d="M24.3,168.2c0,13.1,5.7,21,17.5,21c11.8,0,20-6.2,20-21.7v-36.2c0-5.8-1.4-6.8-10.2-7.5v-3.8h24.6v3.8
		c-7.5,0.9-8.6,1.7-8.6,7.5v38.1c0,18.5-12.7,27.1-28.6,27.1c-19,0-30.4-8.8-30.4-27.3v-38c0-5.9-1.1-6.5-8.6-7.4v-3.8h32.8v3.8
		c-7.5,0.9-8.6,1.5-8.6,7.4V168.2z"/>
	<path d="M120,155.8c0-6.2-2.4-9.3-8.3-9.3c-4.5,0-8.6,2-12,4.4v36.3c0,3.8,1.6,4.4,6.5,4.7v3.5H78.1v-3.5c5-0.3,6.8-1,6.8-4.7v-38
		l-6.4-3.8v-2l19.2-5.9h2.5L99.7,148c4.6-5.4,10.7-10.5,19.9-10.5c10.1,0,15.4,5.8,15.4,17.5v32.2c0,3.8,1.7,4.4,6.7,4.7v3.5h-28.1
		v-3.5c4.9-0.3,6.5-1,6.5-4.7V155.8z"/>
	<path d="M177.9,118.8v-2.3l19-5.2h2.4v72.7c0,3.7,0.2,4.8,4.3,5.2l2.7,0.2v3.2l-19.5,3.9h-2.8l0.4-10c-4.3,6.1-9.8,10-17.3,10
		c-13,0-21.7-10.5-21.7-26.8c0-20.3,12-32,27.4-32c4.9,0,9,1.4,11.6,3.8v-19.3L177.9,118.8z M160,164.5c0,13.1,5.4,22.9,15.1,22.9
		c3.6,0,6.7-1.2,9.1-3.4v-28.3c0-8.4-3.5-13.3-10-13.3C165.3,142.3,160,151.1,160,164.5z"/>
	<path d="M258.4,159.9v2.5h-35c-0.4,15,7.3,23.9,17.8,23.9c7.3,0,12.1-3.1,16-8.7l1.7,1c-2.8,10.6-10.6,17.9-23,17.9
		c-15.6,0-26-11.5-26-28c0-18.4,11.8-31,26.5-31C250.9,137.5,258.4,147,258.4,159.9z M223.6,158.4h21.5c0-10.1-2.7-17-9.7-17
		C228.3,141.4,224.5,148.5,223.6,158.4z"/>
	<path d="M284.5,186.3c0,4.4,2.5,5,9.1,5.6v3.5h-30.7v-3.5c5-0.3,6.8-1,6.8-4.7v-38l-6.4-3.8v-2l19.2-5.9h2.5l-0.4,15.9
		c5.2-11.7,8.4-15.9,14.7-15.9c2.3,0,3.9,0.8,4.7,1.8v11.6h-2c-6.7,0-11.9,0.3-17.4,5.8V186.3z"/>
	<path d="M320.3,173.4c-2,1.9-3.6,4.2-3.6,6.4c0,2.3,1.4,3.7,3.8,3.7h22.1c12.5,0,18.9,5.3,18.9,14.7c0,13.5-13.5,21-31.3,21
		c-15.7,0-25.4-4.7-25.4-13.4c0-5.5,4.9-8.5,10.1-10.1c-4.2-1.6-6.7-5.4-6.7-9.8c0-6.3,5-10.4,10-13.5c-5.7-2.8-9.9-7.7-9.9-15.4
		c0-12.3,10-19.6,23.4-19.6c4,0,6.9,0.8,9.6,1.5l18.1-0.4v6.2h-4.4l-7.5-0.3c3.8,2.5,6.8,7,6.8,12.3c0,11.4-9.6,18.4-23,18.4
		C327.4,175.2,323.6,174.6,320.3,173.4z M316.4,197.2c-1.4,1.6-2,3.8-2,6.3c0,7.2,6.3,11.7,16.4,11.7c10.5,0,20-3.5,20-11.6
		c0-4.7-3.2-6.4-8.5-6.4H316.4z M340.1,157.1c0-8.6-2.9-16-9.1-16c-6,0-8.5,5.9-8.5,14.3c0,8.8,3,16.2,9.3,16.2
		C337.7,171.6,340.1,165.7,340.1,157.1z"/>
	<path d="M385,186.3c0,4.4,2.5,5,9.1,5.6v3.5h-30.7v-3.5c5-0.3,6.8-1,6.8-4.7v-38l-6.4-3.8v-2l19.2-5.9h2.5l-0.4,15.9
		c5.2-11.7,8.4-15.9,14.7-15.9c2.3,0,3.9,0.8,4.7,1.8v11.6h-2c-6.7,0-11.9,0.3-17.4,5.8V186.3z"/>
	<path d="M453,183.5c0,3.6,0.8,6,3.5,6c1.6,0,3.1-0.5,4.3-1.1l0.6,2.4c-3.1,3.7-7.2,5.7-12.2,5.7c-5.8,0-9.7-3.5-10.7-9.4
		c-3.4,4.5-9,9.2-16.7,9.2c-8.7,0-14.5-5.3-14.5-13.8c0-9.2,6.7-13,14.7-16l16.2-5.9v-9.1c0-6.1-2-10.5-7.6-10.5
		c-5.2,0-7.2,3.9-7.2,9c0,2.1,0.3,4.3,0.9,6.7l-8.9,1.2c-2.9-1-4.7-3.2-4.7-6.8c0-8.9,9.2-13.5,21.1-13.5c13.7,0,21.3,5,21.3,17.6
		V183.5z M438.2,184.5v-20.1l-9.2,3.8c-4.5,1.7-7.3,4.2-7.3,10.2c0,5.6,2.6,9.6,8.3,9.6C433,187.9,435.2,186.7,438.2,184.5z"/>
	<path d="M495.9,118.8v-2.3l19-5.2h2.4v72.7c0,3.7,0.2,4.8,4.3,5.2l2.7,0.2v3.2l-19.5,3.9h-2.8l0.4-10c-4.3,6.1-9.8,10-17.3,10
		c-13,0-21.7-10.5-21.7-26.8c0-20.3,12-32,27.4-32c4.9,0,9,1.4,11.6,3.8v-19.3L495.9,118.8z M478.1,164.5c0,13.1,5.4,22.9,15.1,22.9
		c3.6,0,6.7-1.2,9.1-3.4v-28.3c0-8.4-3.5-13.3-10-13.3C483.4,142.3,478.1,151.1,478.1,164.5z"/>
	<path d="M581.8,184.1c0,3.7,0.2,4.8,4.3,5.2l2.7,0.2v3.2l-19.5,3.9h-2.7l0.3-10.3c-4.5,5-10.2,10.3-18.7,10.3
		c-9.4,0-15.6-5.4-15.6-17.4v-27.9c0-3.5-0.8-5.3-4.9-6l-1.7-0.3v-3.2l19.8-4.1h2.4l-0.5,12.8v26.8c0,6.5,2.5,10.4,8.4,10.4
		c4.3,0,7.5-1.8,10.9-4.1v-32.3c0-3.5-0.8-5.3-4.9-6l-1.6-0.3v-3.2l19.5-4.1h2.4l-0.4,12.6V184.1z"/>
	<path d="M638.3,183.5c0,3.6,0.8,6,3.5,6c1.6,0,3.1-0.5,4.3-1.1l0.6,2.4c-3.1,3.7-7.2,5.7-12.2,5.7c-5.8,0-9.7-3.5-10.7-9.4
		c-3.4,4.5-9,9.2-16.7,9.2c-8.7,0-14.5-5.3-14.5-13.8c0-9.2,6.7-13,14.7-16l16.2-5.9v-9.1c0-6.1-2-10.5-7.6-10.5
		c-5.2,0-7.2,3.9-7.2,9c0,2.1,0.3,4.3,0.9,6.7l-8.9,1.2c-2.9-1-4.7-3.2-4.7-6.8c0-8.9,9.2-13.5,21.1-13.5c13.7,0,21.3,5,21.3,17.6
		V183.5z M623.4,184.5v-20.1l-9.2,3.8c-4.5,1.7-7.3,4.2-7.3,10.2c0,5.6,2.6,9.6,8.3,9.6C618.3,187.9,620.4,186.7,623.4,184.5z"/>
	<path d="M668.1,138.5h14v4.9h-14V179c0,6.5,2.5,9.3,7.5,9.3c3,0,5.4-1,8.1-3l1.3,1.9c-3.4,5.4-8.8,9.2-16.5,9.2
		c-8.8,0-15.2-4.6-15.2-16.6v-36.4h-6.7V141c7.4-3.3,13.7-9.3,18.4-16.4h3.2V138.5z"/>
	<path d="M735.3,159.9v2.5h-35c-0.4,15,7.3,23.9,17.8,23.9c7.3,0,12.1-3.1,16-8.7l1.7,1c-2.8,10.6-10.6,17.9-23,17.9
		c-15.6,0-26-11.5-26-28c0-18.4,11.8-31,26.5-31C727.8,137.5,735.3,147,735.3,159.9z M700.5,158.4H722c0-10.1-2.7-17-9.7-17
		C705.2,141.4,701.4,148.5,700.5,158.4z"/>
	<path d="M26,295.7c0,5.9,1.1,6.5,8.6,7.4v3.8h-33v-3.8c7.5-0.9,8.6-1.5,8.6-7.4v-53c0-5.9-1.1-6.5-8.6-7.4v-3.8h34.2
		c17.8,0,28.1,8.4,28.1,20.9c0,11.7-9.4,17.8-17.5,19.9l16.2,22c4.8,6.5,7.5,8.7,13.1,8.8v3.8H55.4c-3.1-2.3-5.8-5.7-9-10.5
		l-14.8-21.7H26V295.7z M26,235.9v34.2h5.2c11.3,0,16.9-6.4,16.9-17.6c0-9.7-5.7-16.6-17.1-16.6H26z"/>
	<path d="M124.3,271.3v2.5h-35c-0.4,15,7.3,23.9,17.8,23.9c7.3,0,12.1-3.1,16-8.7l1.7,1c-2.8,10.6-10.6,17.9-23,17.9
		c-15.6,0-26-11.5-26-28c0-18.4,11.8-31,26.5-31C116.8,248.9,124.3,258.4,124.3,271.3z M89.5,269.8H111c0-10.1-2.7-17-9.7-17
		C94.2,252.8,90.4,259.9,89.5,269.8z"/>
	<path d="M131.6,302.5l-0.6-14.7h4c2.4,9.3,7.8,16.3,16.1,16.3c5.8,0,10.2-2.8,10.2-8.7c0-5.8-4-8.1-12.5-11.1
		c-11.5-4-17.4-8.5-17.4-18.5c0-10.7,8.2-17.1,20-17.1c7,0,13,1.8,17.5,4.7v13h-3.6c-1.7-7.7-6.2-14-13.8-14c-5.5,0-8.7,3.2-8.7,7.8
		c0,4.9,3.3,7.3,11.6,10.3c11.7,4.1,18.5,8.5,18.5,19c0,11.5-8.6,18.1-21.8,18.1C142.8,307.9,136,305.8,131.6,302.5z"/>
	<path d="M227.2,271.3v2.5h-35c-0.4,15,7.3,23.9,17.8,23.9c7.3,0,12.1-3.1,16-8.7l1.7,1c-2.8,10.6-10.6,17.9-23,17.9
		c-15.6,0-26-11.5-26-28c0-18.4,11.8-31,26.5-31C219.7,248.9,227.2,258.4,227.2,271.3z M192.5,269.8h21.5c0-10.1-2.7-17-9.7-17
		C197.2,252.8,193.3,259.9,192.5,269.8z"/>
	<path d="M278.2,294.9c0,3.6,0.8,6,3.5,6c1.6,0,3.1-0.5,4.3-1.1l0.6,2.4c-3.1,3.7-7.2,5.7-12.2,5.7c-5.8,0-9.7-3.5-10.7-9.4
		c-3.4,4.5-9,9.2-16.7,9.2c-8.7,0-14.5-5.3-14.5-13.8c0-9.2,6.7-13,14.7-16l16.2-5.9v-9.1c0-6.1-2-10.5-7.6-10.5
		c-5.2,0-7.2,3.9-7.2,9c0,2.1,0.3,4.3,0.9,6.7l-8.9,1.2c-2.9-1-4.7-3.2-4.7-6.8c0-8.9,9.2-13.5,21.1-13.5c13.7,0,21.3,5,21.3,17.6
		V294.9z M263.4,295.9v-20.1l-9.2,3.8c-4.5,1.7-7.3,4.2-7.3,10.2c0,5.6,2.6,9.6,8.3,9.6C258.3,299.3,260.4,298.1,263.4,295.9z"/>
	<path d="M310.1,297.7c0,4.4,2.5,5,9.1,5.6v3.5h-30.7v-3.5c5-0.3,6.8-1,6.8-4.7v-38l-6.4-3.8v-2l19.2-5.9h2.5l-0.4,15.9
		c5.2-11.7,8.4-15.9,14.7-15.9c2.3,0,3.9,0.8,4.7,1.8v11.6h-2c-6.7,0-11.9,0.3-17.4,5.8V297.7z"/>
	<path d="M362.5,297.3c6.8,0,11.5-2.7,15-7.9l1.8,1.1c-3.3,11.7-11.3,17.5-22.2,17.5c-14.4,0-25-10.7-25-27.6
		c0-17.9,10.8-31.5,27.8-31.5c10.5,0,17.8,4.3,17.8,12.6c0,3.4-1.8,6.1-4.1,7.2h-8.2c0.2-1.7,0.4-3.3,0.4-5.3
		c0-5.7-1.8-10.4-7.8-10.4c-8.2,0-12.9,9.2-12.9,21.1C345.2,288.1,351.6,297.3,362.5,297.3z"/>
	<path d="M388.7,233.5l-6.4-3.3v-2.3l19-5.2h2.4v36.6c4.5-5.4,10.7-10.5,19.8-10.5c10.1,0,15.5,5.9,15.5,17.6v32.1
		c0,3.8,1.7,4.4,6.7,4.7v3.5h-28.1v-3.5c4.9-0.3,6.5-1,6.5-4.7v-31.3c0-6.2-2.5-9.3-8.4-9.3c-4.4,0-8.5,2-11.9,4.4v36.3
		c0,3.8,1.6,4.4,6.5,4.7v3.5H382v-3.5c4.9-0.3,6.7-1,6.7-4.7V233.5z"/>
	<path d="M498.1,242.6c0-5.9-1.1-6.5-8.6-7.4v-3.8h32.8v3.8c-7.5,0.9-8.6,1.5-8.6,7.4V284c0,16.3-9.3,23.9-25.1,23.9
		c-13.8,0-22.2-5.3-22.2-14.8c0-3.6,1.7-6.7,4.3-8.3h10.4c-0.3,2.1-0.6,4.3-0.6,6.8c0,7.7,2.9,12.5,8.7,12.5c6.2,0,8.9-4.8,8.9-15.1
		V242.6z"/>
	<path d="M524.7,279.7c0-18.2,11.9-30.8,27.9-30.8c16.4,0,27.6,11.4,27.6,28.3c0,18.2-11.9,30.7-27.9,30.7
		C535.8,307.9,524.7,296.7,524.7,279.7z M564.3,280.8c0-15.9-3.6-28-12.2-28c-7.9,0-11.6,9-11.6,23.1c0,15.9,3.8,28.1,12.3,28.1
		C560.8,304,564.3,294.9,564.3,280.8z"/>
	<path d="M639.3,295.4c0,3.7,0.2,4.8,4.3,5.2l2.7,0.2v3.2l-19.5,3.9h-2.7l0.3-10.3c-4.5,5-10.2,10.3-18.7,10.3
		c-9.4,0-15.6-5.4-15.6-17.4v-27.9c0-3.5-0.8-5.3-4.9-6l-1.7-0.3V253l19.8-4.1h2.4l-0.5,12.8v26.8c0,6.5,2.5,10.4,8.4,10.4
		c4.3,0,7.5-1.8,10.9-4.1v-32.3c0-3.5-0.8-5.3-4.9-6l-1.6-0.3V253l19.5-4.1h2.4l-0.4,12.6V295.4z"/>
	<path d="M671.4,297.7c0,4.4,2.5,5,9.1,5.6v3.5h-30.7v-3.5c5-0.3,6.8-1,6.8-4.7v-38l-6.4-3.8v-2l19.2-5.9h2.5l-0.4,15.9
		c5.2-11.7,8.4-15.9,14.7-15.9c2.3,0,3.9,0.8,4.7,1.8v11.6h-2c-6.7,0-11.9,0.3-17.4,5.8V297.7z"/>
	<path d="M735.8,267.2c0-6.2-2.4-9.3-8.3-9.3c-4.5,0-8.6,2-12,4.4v36.3c0,3.8,1.6,4.4,6.5,4.7v3.5H694v-3.5c5-0.3,6.8-1,6.8-4.7v-38
		l-6.4-3.8v-2l19.2-5.9h2.5l-0.4,10.5c4.6-5.4,10.7-10.5,19.9-10.5c10.1,0,15.4,5.8,15.4,17.5v32.2c0,3.8,1.7,4.4,6.7,4.7v3.5h-28.1
		v-3.5c4.9-0.3,6.5-1,6.5-4.7V267.2z"/>
	<path d="M806.8,294.9c0,3.6,0.8,6,3.5,6c1.6,0,3.1-0.5,4.3-1.1l0.6,2.4c-3.1,3.7-7.2,5.7-12.2,5.7c-5.8,0-9.7-3.5-10.7-9.4
		c-3.4,4.5-9,9.2-16.7,9.2c-8.7,0-14.5-5.3-14.5-13.8c0-9.2,6.7-13,14.7-16l16.2-5.9v-9.1c0-6.1-2-10.5-7.6-10.5
		c-5.2,0-7.2,3.9-7.2,9c0,2.1,0.3,4.3,0.9,6.7l-8.9,1.2c-2.9-1-4.7-3.2-4.7-6.8c0-8.9,9.2-13.5,21.1-13.5c13.7,0,21.3,5,21.3,17.6
		V294.9z M792,295.9v-20.1l-9.2,3.8c-4.5,1.7-7.3,4.2-7.3,10.2c0,5.6,2.6,9.6,8.3,9.6C786.8,299.3,789,298.1,792,295.9z"/>
	<path d="M838.4,298.6c0,3.8,1.7,4.4,6.7,4.7v3.5h-28.2v-3.5c4.9-0.3,6.7-1,6.7-4.7v-65.1l-6.4-3.3v-2.3l19-5.2h2.4V298.6z"/>
</g>
</svg>
